<svg width="20" height="24" viewBox="0 0 20 24" fill="none" xmlns="http://www.w3.org/2000/svg">
<path fill-rule="evenodd" clip-rule="evenodd" d="M0 20.4V18.6H2.52V9.42C2.52 7.74 3.015 6.245 4.005 4.935C4.995 3.625 6.3 2.8 7.92 2.46V1.59C7.92 1.13 8.085 0.75 8.415 0.45C8.745 0.15 9.14 0 9.6 0C10.06 0 10.455 0.15 10.785 0.45C11.115 0.75 11.28 1.13 11.28 1.59V2.46C12.9 2.8 14.21 3.625 15.21 4.935C16.21 6.245 16.71 7.74 16.71 9.42V18.6H19.2V20.4H0ZM9.6 24C8.96 24 8.4 23.765 7.92 23.295C7.44 22.825 7.2 22.26 7.2 21.6H12C12 22.26 11.765 22.825 11.295 23.295C10.825 23.765 10.26 24 9.6 24ZM14.91 18.6H4.32V9.42C4.32 7.94 4.835 6.68 5.865 5.64C6.895 4.6 8.15 4.08 9.63 4.08C11.11 4.08 12.36 4.6 13.38 5.64C14.4 6.68 14.91 7.94 14.91 9.42V18.6Z" fill="#93000A"/>
</svg>
