<svg width="25" height="24" viewBox="0 0 25 24" fill="none" xmlns="http://www.w3.org/2000/svg">
<path d="M6.5 14.0249H14.325V12.5249H6.5V14.0249ZM6.5 10.7749H18.5V9.2749H6.5V10.7749ZM6.5 7.5249H17.375C17.025 7.34157 16.7042 7.1249 16.4125 6.8749C16.1208 6.6249 15.8583 6.34157 15.625 6.0249H6.5V7.5249ZM2.5 21.9999V3.4999C2.5 3.0999 2.65 2.7499 2.95 2.4499C3.25 2.1499 3.6 1.9999 4 1.9999H14.925C14.8583 2.23324 14.8083 2.47907 14.775 2.7374C14.7417 2.99574 14.7333 3.2499 14.75 3.4999H4V18.4999L5.85 16.4999H21V7.7749C21.2799 7.69157 21.5415 7.57907 21.7849 7.4374C22.0283 7.29574 22.2667 7.13324 22.5 6.9499V16.4999C22.5 16.8999 22.35 17.2499 22.05 17.5499C21.75 17.8499 21.4 17.9999 21 17.9999H6.5L2.5 21.9999ZM19.4971 6.0249C18.7324 6.0249 18.0833 5.75725 17.55 5.22195C17.0167 4.68667 16.75 4.03667 16.75 3.27195C16.75 2.50725 17.0176 1.85824 17.5529 1.3249C18.0882 0.791569 18.7382 0.524902 19.503 0.524902C20.2677 0.524902 20.9167 0.792552 21.45 1.32785C21.9833 1.86314 22.25 2.51314 22.25 3.27785C22.25 4.04255 21.9823 4.69157 21.4471 5.2249C20.9118 5.75824 20.2618 6.0249 19.4971 6.0249Z" fill="#BA1A1A"/>
</svg>
