<svg width="24" height="24" viewBox="0 0 24 24" fill="none" xmlns="http://www.w3.org/2000/svg">
<path d="M6 14.025H13.825V12.525H6V14.025ZM6 10.775H18V9.27502H6V10.775ZM6 7.52502H16.875C16.525 7.34169 16.2042 7.12502 15.9125 6.87502C15.6208 6.62502 15.3583 6.34169 15.125 6.02502H6V7.52502ZM2 22V3.50002C2 3.10002 2.15 2.75002 2.45 2.45002C2.75 2.15002 3.1 2.00002 3.5 2.00002H14.425C14.3583 2.23336 14.3083 2.47919 14.275 2.73752C14.2417 2.99586 14.2333 3.25002 14.25 3.50002H3.5V18.5L5.35 16.5H20.5V7.77502C20.7799 7.69169 21.0415 7.57919 21.2849 7.43752C21.5283 7.29586 21.7667 7.13336 22 6.95002V16.5C22 16.9 21.85 17.25 21.55 17.55C21.25 17.85 20.9 18 20.5 18H6L2 22ZM18.9971 6.02502C18.2324 6.02502 17.5833 5.75737 17.05 5.22207C16.5167 4.68679 16.25 4.03679 16.25 3.27207C16.25 2.50738 16.5176 1.85836 17.0529 1.32502C17.5882 0.791691 18.2382 0.525024 19.003 0.525024C19.7677 0.525024 20.4167 0.792674 20.95 1.32797C21.4833 1.86326 21.75 2.51326 21.75 3.27797C21.75 4.04267 21.4823 4.69169 20.9471 5.22502C20.4118 5.75836 19.7618 6.02502 18.9971 6.02502Z" fill="#FFFFFF"/>
</svg>
