<svg width="20" height="24" viewBox="0 0 20 24" fill="none" xmlns="http://www.w3.org/2000/svg">
<path d="M14.8 14.756C14.8 15.7772 12.6493 16.6061 10.0003 16.6061C7.3721 16.6061 5.23436 15.79 5.2012 14.7798L5.20029 14.303H5.99789V14.7556H5.9994C5.9994 15.3474 7.792 15.8281 10.0003 15.8281C12.2086 15.8281 14.0015 15.3478 14.0015 14.756L14.0012 14.2792H14.8V14.756ZM5.99789 12.5621V13.0385H5.9994C5.9994 13.6303 7.792 14.1113 10.0003 14.1113C12.2086 14.1113 14.0015 13.6306 14.0015 13.0388L14.0024 12.5621H14.8V13.0388C14.8 14.0601 12.6493 14.889 10.0003 14.889C7.3513 14.889 5.20058 14.0601 5.20058 13.0388L5.19999 12.5621H5.99789ZM14.8 10.8453V11.322C14.8 12.3432 12.6493 13.1722 10.0003 13.1722C7.3721 13.1722 5.23436 12.3561 5.2012 11.3458L5.20029 10.8691H5.99789V11.3217L5.9994 11.322C5.9994 11.9138 7.792 12.3942 10.0003 12.3942C12.2086 12.3942 14.0015 11.9138 14.0015 11.322L14.0012 10.8453H14.8ZM14.8 9.12843V9.60516C14.8 10.6264 12.6493 11.4554 10.0003 11.4554C7.3721 11.4554 5.23436 10.6392 5.2012 9.62897L5.20029 9.15223H5.99789V9.60487L5.9994 9.60516C5.9994 10.197 7.792 10.6774 10.0003 10.6774C12.2086 10.6774 14.0015 10.197 14.0015 9.60516L14.0012 9.12843H14.8ZM14.8 7.84988C14.8 8.87112 12.6493 9.70009 10.0003 9.70009C7.3513 9.70009 5.20058 8.87112 5.20058 7.84988C5.20058 6.82864 7.3513 6 10.0003 6C12.1655 6 13.9979 6.55366 14.595 7.31364L13.669 7.42167C13.0517 7.04259 11.6407 6.77739 10.0003 6.77739C7.792 6.77739 5.9994 7.25807 5.9994 7.84988C5.9994 8.44169 7.792 8.9224 10.0003 8.9224C12.2086 8.9224 14.0015 8.44169 14.0015 7.84988H14.8ZM9.99999 24C7.19999 23.3 4.89999 21.675 3.09999 19.125C1.29999 16.575 0.399994 13.78 0.399994 10.74V3.6L9.99999 0L19.6 3.6V10.74C19.6 13.78 18.7 16.575 16.9 19.125C15.1 21.675 12.8 23.3 9.99999 24ZM9.99999 22.14C12.3 21.38 14.175 19.945 15.625 17.835C17.075 15.725 17.8 13.36 17.8 10.74V4.85999L9.99999 1.92001L2.19999 4.85999V10.74C2.19999 13.36 2.92499 15.725 4.37499 17.835C5.82499 19.945 7.69999 21.38 9.99999 22.14Z" fill="#3F4945"/>
</svg>
