<svg width="158" height="36" viewBox="0 0 158 36" fill="none" xmlns="http://www.w3.org/2000/svg">
<path d="M6.99695 27.8507C5.41145 27.8507 4.20192 27.4254 3.37174 26.5766V32.6276C3.37174 32.9492 3.3156 33.1652 3.20162 33.2792C3.08764 33.3932 2.84267 33.4493 2.46501 33.4493H0.906729C0.54778 33.4493 0.306212 33.3932 0.183727 33.2792C0.0612425 33.1652 0 32.9492 0 32.6276V19.4962C0 17.3442 0.50525 15.6822 1.51575 14.5118C2.52455 13.3414 4.14407 12.7562 6.37262 12.7562C8.41234 12.7562 9.99784 13.2801 11.1308 14.3281C12.2638 15.376 12.8303 16.8526 12.8303 18.7596V21.422C12.8303 23.4804 12.3302 25.0659 11.3299 26.1802C10.3296 27.2928 8.88526 27.8507 6.99695 27.8507ZM9.46026 21.109V19.3244C9.46026 18.04 9.21019 17.0959 8.71004 16.492C8.2099 15.888 7.43075 15.5852 6.37262 15.5852C5.3349 15.5852 4.56427 15.888 4.06412 16.492C3.56397 17.0959 3.3139 18.04 3.3139 19.3244V21.0817C3.3139 23.6879 4.33291 24.9911 6.37262 24.9911C8.43105 24.9894 9.46026 23.6965 9.46026 21.109Z" fill="white"/>
<path d="M20.1147 18.7018C20.5485 18.7018 21.0453 18.7154 21.6016 18.7443C22.1579 18.7715 22.6818 18.8141 23.1735 18.8719V18.1353C23.1735 17.0788 22.971 16.3473 22.5644 15.9408C22.1579 15.5359 21.5301 15.3317 20.6812 15.3317C20.096 15.3317 19.6146 15.4219 19.2369 15.6005C18.8593 15.7791 18.5956 16.0871 18.4442 16.5209C18.3693 16.7471 18.2741 16.8934 18.1618 16.9598C18.0478 17.0261 17.8403 17.0584 17.5392 17.0584H15.6985C15.3957 17.0584 15.1881 17.0074 15.0758 16.9019C14.9619 16.7982 14.9057 16.6433 14.9057 16.4341C14.9057 15.6975 15.1983 15.0085 15.7835 14.3672C16.2548 13.8568 16.8791 13.4604 17.6531 13.178C18.4272 12.8939 19.4377 12.7527 20.6829 12.7527C22.1749 12.7527 23.3351 12.9501 24.167 13.3465C24.9971 13.7428 25.5823 14.3246 25.9226 15.0885C26.2628 15.8523 26.4329 16.793 26.4329 17.9056V23.4294C26.4329 24.2595 26.273 25.0489 25.9515 25.794C25.63 26.5408 25.0771 27.1396 24.2945 27.5921C23.5103 28.0447 22.4113 28.2726 20.9943 28.2726H20.2015C18.1992 28.2726 16.7226 27.9001 15.7699 27.1532C14.8156 26.4081 14.3392 25.2037 14.3392 23.5416C14.3392 22.2947 14.5978 21.3233 15.1184 20.6241C15.6372 19.9249 16.3364 19.4299 17.2142 19.1373C18.0886 18.8481 19.0566 18.7018 20.1147 18.7018ZM20.2849 21.2791C19.3968 21.2791 18.7317 21.4492 18.2877 21.7894C17.8437 22.1297 17.6225 22.7046 17.6225 23.5161C17.6225 24.3276 17.8386 24.8941 18.2741 25.2156C18.7079 25.5371 19.322 25.697 20.1147 25.697H20.5962C21.5216 25.697 22.1817 25.4708 22.578 25.0166C22.9744 24.564 23.1735 23.7985 23.1735 22.7234V21.4492C22.5508 21.3743 22.0031 21.3267 21.5301 21.308C21.0589 21.2893 20.6421 21.2791 20.2849 21.2791Z" fill="white"/>
<path d="M32.091 9.80788V27.1701C32.091 27.5104 32.0297 27.7315 31.9073 27.8353C31.7831 27.9391 31.5432 27.9918 31.1842 27.9918H29.626C29.267 27.9918 29.0255 27.9408 28.903 27.8353C28.7788 27.7315 28.7192 27.5104 28.7192 27.1701V9.80788C28.7192 9.46765 28.7805 9.24649 28.903 9.14272C29.0255 9.03895 29.267 8.98792 29.626 8.98792H31.1842C31.5432 8.98792 31.7831 9.03895 31.9073 9.14272C32.028 9.24649 32.091 9.46935 32.091 9.80788Z" fill="white"/>
<path d="M45.7072 21.4781H37.4939V21.6193C37.4939 23.0364 37.7253 24.0418 38.188 24.6355C38.6507 25.2309 39.4197 25.5286 40.4965 25.5286C41.8745 25.5286 42.7149 25.037 43.0177 24.0554C43.1317 23.7339 43.3868 23.574 43.7815 23.574H45.5371C45.8586 23.574 46.0849 23.6216 46.2176 23.7152C46.3503 23.8104 46.4149 23.9789 46.4149 24.2255C46.4149 24.5845 46.2975 25.0047 46.0611 25.4861C45.8246 25.9675 45.5456 26.369 45.2258 26.6905C44.6967 27.2383 44.0129 27.6585 43.1725 27.9511C42.3321 28.2437 41.4118 28.39 40.4115 28.39C38.4092 28.39 36.8611 27.8235 35.7672 26.6905C34.6717 25.5575 34.1239 23.9431 34.1239 21.8473V19.6374C34.1239 17.448 34.6717 15.7536 35.7672 14.5543C36.8628 13.355 38.4194 12.7562 40.4404 12.7562C42.4614 12.7562 43.9942 13.3125 45.0421 14.4267C46.09 15.541 46.614 17.1741 46.614 19.3261V20.6564C46.614 20.978 46.5578 21.194 46.4438 21.308C46.3299 21.4203 46.0832 21.4781 45.7072 21.4781ZM40.4676 15.4729C39.4486 15.4729 38.7069 15.7417 38.2442 16.281C37.7814 16.8186 37.5314 17.7015 37.4939 18.9297H43.1861C43.1861 17.7406 42.9683 16.8662 42.5345 16.3099C42.099 15.7519 41.4101 15.4729 40.4676 15.4729Z" fill="white"/>
<path d="M55.6779 27.9918H54.0924C52.4303 27.9918 51.2888 27.5903 50.6662 26.7891C50.0436 25.9861 49.7322 24.9059 49.7322 23.5466V15.927H48.2318C47.9494 15.927 47.7589 15.876 47.6653 15.7722C47.57 15.6684 47.5241 15.4558 47.5241 15.1343V13.9452C47.5241 13.6236 47.5717 13.4127 47.6653 13.3072C47.7589 13.2034 47.9494 13.1524 48.2318 13.1524H49.7322V9.80958C49.7322 9.46935 49.7935 9.2482 49.916 9.14442C50.0385 9.04065 50.28 8.98792 50.639 8.98792H52.1973C52.5562 8.98792 52.7961 9.04065 52.9203 9.14442C53.0427 9.2482 53.104 9.46935 53.104 9.80958V13.1524H55.6813C55.9654 13.1524 56.1525 13.2034 56.2478 13.3072C56.3413 13.411 56.389 13.6236 56.389 13.9452V15.1343C56.389 15.4558 56.3413 15.6684 56.2478 15.7722C56.1525 15.876 55.9654 15.927 55.6813 15.927H53.104V23.0363C53.104 23.7354 53.2214 24.2492 53.4578 24.5792C53.6926 24.9093 54.0941 25.0743 54.6606 25.0743H55.6796C55.9637 25.0743 56.1508 25.127 56.2461 25.2308C56.3396 25.3346 56.3873 25.5472 56.3873 25.8687V27.199C56.3873 27.5206 56.3447 27.7332 56.2597 27.837C56.1729 27.9391 55.979 27.9918 55.6779 27.9918Z" fill="white"/>
<path d="M106.571 27.8508C104.986 27.8508 103.776 27.4255 102.946 26.5766V32.6277C102.946 32.9492 102.89 33.1653 102.776 33.2793C102.662 33.3932 102.417 33.4494 102.039 33.4494H100.481C100.122 33.4494 99.8824 33.3932 99.7582 33.2793C99.6357 33.1653 99.5745 32.9492 99.5745 32.6277V19.4963C99.5745 17.3443 100.08 15.6823 101.09 14.5118C102.101 13.3414 103.719 12.7562 105.947 12.7562C107.987 12.7562 109.572 13.2802 110.705 14.3281C111.838 15.376 112.405 16.8527 112.405 18.7597V21.422C112.405 23.4805 111.905 25.066 110.904 26.1802C109.904 27.2928 108.46 27.8508 106.571 27.8508ZM109.036 21.109V19.3245C109.036 18.0401 108.786 17.0959 108.286 16.492C107.786 15.8881 107.007 15.5853 105.95 15.5853C104.911 15.5853 104.142 15.8881 103.642 16.492C103.142 17.0959 102.892 18.0401 102.892 19.3245V21.0818C102.892 23.688 103.911 24.9911 105.95 24.9911C108.007 24.9894 109.036 23.6965 109.036 21.109Z" fill="white"/>
<path d="M120.436 28.3882C118.415 28.3882 116.84 27.8353 115.707 26.7312C114.574 25.6272 114.007 24.0825 114.007 22.1006V19.3243C114.007 17.2471 114.574 15.6327 115.707 14.481C116.84 13.3293 118.415 12.7543 120.436 12.7543C122.457 12.7543 124.032 13.3072 125.165 14.4113C126.298 15.5153 126.865 17.0583 126.865 19.0419V21.8182C126.865 23.8766 126.298 25.486 125.165 26.6479C124.034 27.8081 122.457 28.3882 120.436 28.3882ZM120.436 25.5268C122.476 25.5268 123.495 24.2424 123.495 21.6753V19.4655C123.495 16.8984 122.476 15.614 120.436 15.614C118.396 15.614 117.377 16.8984 117.377 19.4655V21.6753C117.377 24.2441 118.398 25.5268 120.436 25.5268Z" fill="white"/>
<path d="M130.531 11.4513C130.005 11.4513 129.587 11.317 129.274 11.0448C128.961 10.7743 128.804 10.4017 128.804 9.92709V9.39292C128.804 8.90128 128.961 8.52532 129.274 8.26333C129.587 8.00135 130.005 7.87036 130.531 7.87036C131.072 7.87036 131.501 8.00135 131.814 8.26333C132.127 8.52532 132.283 8.90298 132.283 9.39292V9.92709C132.283 10.4017 132.127 10.7743 131.814 11.0448C131.501 11.317 131.072 11.4513 130.531 11.4513ZM132.201 13.9725V27.1702C132.201 27.5105 132.14 27.7316 132.018 27.8354C131.895 27.9392 131.654 27.9919 131.295 27.9919H129.736C129.377 27.9919 129.138 27.9409 129.013 27.8354C128.891 27.7316 128.83 27.5105 128.83 27.1702V13.9725C128.83 13.6323 128.891 13.4111 129.013 13.3073C129.136 13.2036 129.377 13.1525 129.736 13.1525H131.295C131.654 13.1525 131.893 13.2036 132.018 13.3073C132.138 13.4111 132.201 13.6323 132.201 13.9725Z" fill="white"/>
<path d="M142.087 12.7543C143.672 12.7543 144.853 13.212 145.627 14.1272C146.401 15.0424 146.787 16.2945 146.787 17.88V27.1701C146.787 27.5104 146.726 27.7315 146.603 27.8353C146.481 27.9391 146.239 27.9918 145.88 27.9918H144.322C143.963 27.9918 143.722 27.9408 143.599 27.8353C143.477 27.7315 143.415 27.5104 143.415 27.1701V18.3903C143.415 17.5227 143.24 16.8559 142.891 16.3932C142.543 15.9304 141.905 15.6991 140.979 15.6991C140.073 15.6991 139.36 15.9781 138.841 16.5344C138.322 17.0906 138.062 17.8698 138.062 18.8701V27.1684C138.062 27.5087 138.001 27.7298 137.878 27.8336C137.756 27.9374 137.514 27.9901 137.155 27.9901H135.597C135.238 27.9901 134.998 27.9391 134.874 27.8336C134.751 27.7298 134.69 27.5087 134.69 27.1684V13.9707C134.69 13.6304 134.751 13.4093 134.874 13.3055C134.996 13.2017 135.238 13.1507 135.597 13.1507H137.097C137.456 13.1507 137.696 13.2017 137.82 13.3055C137.943 13.4093 138.004 13.6321 138.004 13.9707V14.5644C138.438 13.9979 139.009 13.5556 139.717 13.2341C140.43 12.9142 141.217 12.7543 142.087 12.7543Z" fill="white"/>
<path d="M156.258 27.9919H154.672C153.01 27.9919 151.869 27.5904 151.246 26.7892C150.623 25.9862 150.312 24.906 150.312 23.5467V15.9272H148.812C148.529 15.9272 148.339 15.8761 148.245 15.7723C148.15 15.6686 148.104 15.4559 148.104 15.1344V13.9453C148.104 13.6238 148.152 13.4128 148.245 13.3073C148.339 13.2036 148.529 13.1525 148.812 13.1525H150.312V9.80971C150.312 9.46947 150.373 9.24832 150.496 9.14455C150.618 9.04077 150.86 8.98804 151.219 8.98804H152.777C153.136 8.98804 153.376 9.04077 153.5 9.14455C153.623 9.24832 153.684 9.46947 153.684 9.80971V13.1525H156.261C156.545 13.1525 156.732 13.2036 156.828 13.3073C156.921 13.4111 156.969 13.6238 156.969 13.9453V15.1344C156.969 15.4559 156.921 15.6686 156.828 15.7723C156.732 15.8761 156.545 15.9272 156.261 15.9272H153.684V23.0364C153.684 23.7356 153.801 24.2493 154.038 24.5794C154.272 24.9094 154.674 25.0744 155.24 25.0744H156.259C156.543 25.0744 156.731 25.1271 156.826 25.2309C156.919 25.3347 156.967 25.5473 156.967 25.8688V27.1992C156.967 27.5207 156.924 27.7333 156.839 27.8371C156.753 27.9392 156.559 27.9919 156.258 27.9919Z" fill="white"/>
<path d="M77.6976 36C87.6388 36 95.6976 27.9411 95.6976 18C95.6976 8.05887 87.6388 0 77.6976 0C67.7565 0 59.6976 8.05887 59.6976 18C59.6976 27.9411 67.7565 36 77.6976 36Z" fill="#FF5E00"/>
<path d="M77.6976 8.00098L62.4947 17.9999L64.5588 19.3575L72.1602 14.3573L79.7603 9.3572L77.6976 8.00098Z" fill="white"/>
<path d="M86.3232 13.6746L84.2736 12.3264L76.6722 17.3265L69.0707 22.3253L71.1216 23.6736L86.3232 13.6746Z" fill="white"/>
<path d="M75.4483 16.5208L83.0484 11.5206L80.9857 10.1631L73.3842 15.1632L65.7828 20.1634L67.8469 21.5196L75.4483 16.5208Z" fill="white"/>
<path d="M82.0098 20.8369L89.6112 15.8367L87.5617 14.4885L72.3601 24.4888L74.4097 25.837L82.0098 20.8369Z" fill="white"/>
<path d="M92.8992 17.9999L90.8364 16.6424L83.235 21.6425L75.6335 26.6427L77.6976 27.9989L92.8992 17.9999Z" fill="white"/>
</svg>
