<svg width="24" height="24" viewBox="0 0 24 24" fill="none" xmlns="http://www.w3.org/2000/svg">
<path d="M19.675 20.375L20.375 19.675L18.5 17.8V15H17.5V18.2L19.675 20.375ZM6 21C5.45 21 4.97917 20.8042 4.5875 20.4125C4.19583 20.0208 4 19.55 4 19V4C4 3.45 4.19583 2.97917 4.5875 2.5875C4.97917 2.19583 5.45 2 6 2H19C19.55 2 20.0208 2.19583 20.4125 2.5875C20.8042 2.97917 21 3.45 21 4V11.7C20.6833 11.55 20.3583 11.4208 20.025 11.3125C19.6917 11.2042 19.35 11.125 19 11.075V4H6V11.5V19H11.05C11.1 19.3667 11.1792 19.7167 11.2875 20.05C11.3958 20.3833 11.525 20.7 11.675 21H6ZM18 23C16.6167 23 15.4375 22.5125 14.4625 21.5375C13.4875 20.5625 13 19.3833 13 18C13 16.6167 13.4875 15.4375 14.4625 14.4625C15.4375 13.4875 16.6167 13 18 13C19.3833 13 20.5625 13.4875 21.5375 14.4625C22.5125 15.4375 23 16.6167 23 18C23 19.3833 22.5125 20.5625 21.5375 21.5375C20.5625 22.5125 19.3833 23 18 23Z" fill="#616161"/>
<path d="M9.59893 15.311V12.6739L8.06274 13.634V12.4179L9.59893 11.4578V10.2545L8.06274 11.2146V10.0112L9.59893 9.03835V6.09406H10.6231V8.39829L12.6713 7.11816V8.32148L10.6231 9.61441V10.8177L12.6713 9.5376V10.7409L10.6231 12.0339V14.2869C11.3314 14.2869 11.9352 14.0373 12.4345 13.538C12.9337 13.0388 13.1834 12.435 13.1834 11.7266H14.2075C14.2075 12.7251 13.8597 13.5721 13.1642 14.2677C12.4686 14.9632 11.6216 15.311 10.6231 15.311H9.59893Z" fill="#616161"/>
</svg>
