<svg width="181" height="128" viewBox="0 0 181 128" fill="none" xmlns="http://www.w3.org/2000/svg">
<path d="M90.5 64C108.173 64 122.5 49.6731 122.5 32C122.5 14.3269 108.173 0 90.5 0C72.8269 0 58.5 14.3269 58.5 32C58.5 49.6731 72.8269 64 90.5 64Z" fill="#FF5E00"/>
<path d="M90.5 14.2239L63.4761 31.9999L67.1426 34.412L80.6557 25.5229L94.1688 16.636L90.5 14.2239Z" fill="white"/>
<path d="M105.836 24.3103L102.191 21.9136L88.6779 30.8005L75.1648 39.6896L78.8094 42.0863L105.836 24.3103Z" fill="white"/>
<path d="M86.5012 29.3678L100.014 20.4808L96.3455 18.0687L82.8324 26.9557L69.3215 35.8448L72.9881 38.2569L86.5012 29.3678Z" fill="white"/>
<path d="M98.1676 37.0421L111.679 28.1551L108.036 25.7584L81.01 43.5345L84.6546 45.9312L98.1676 37.0421Z" fill="white"/>
<path d="M117.524 31.9999L113.857 29.5856L100.344 38.4747L86.8313 47.3616L90.5001 49.7759L117.524 31.9999Z" fill="white"/>
<path d="M11.2905 118.823C8.84396 118.823 6.97875 118.167 5.69735 116.856V126.19C5.69735 126.684 5.61077 127.021 5.43514 127.194C5.2595 127.37 4.88102 127.456 4.29969 127.456H1.89768C1.34355 127.456 0.972492 127.37 0.784487 127.194C0.594009 127.018 0.5 126.684 0.5 126.19V105.935C0.5 102.615 1.27923 100.052 2.8377 98.2462C4.39616 96.4404 6.89217 95.5375 10.3307 95.5375C13.4773 95.5375 15.9238 96.3464 17.6703 97.9618C19.4168 99.5771 20.2925 101.858 20.2925 104.799V108.906C20.2925 112.082 19.5207 114.528 17.9771 116.245C16.4334 117.962 14.2046 118.823 11.2905 118.823ZM15.0927 108.423V105.67C15.0927 103.688 14.7067 102.234 13.9349 101.301C13.1631 100.369 11.9609 99.9037 10.3307 99.9037C8.72769 99.9037 7.5403 100.369 6.77097 101.301C5.99916 102.234 5.61325 103.688 5.61325 105.67V108.379C5.61325 112.399 7.18655 114.407 10.3307 114.407C13.5045 114.41 15.0927 112.413 15.0927 108.423Z" fill="#616161"/>
<path d="M31.5283 104.71C32.1987 104.71 32.9631 104.732 33.8214 104.774C34.6798 104.817 35.4888 104.883 36.2457 104.97V103.834C36.2457 102.204 35.9316 101.076 35.3057 100.448C34.6798 99.822 33.7101 99.5079 32.399 99.5079C31.4961 99.5079 30.754 99.6464 30.1702 99.9235C29.5864 100.201 29.1807 100.673 28.9457 101.343C28.8294 101.692 28.6835 101.92 28.5078 102.021C28.3322 102.125 28.0106 102.175 27.5455 102.175H24.7057C24.2381 102.175 23.919 102.095 23.7434 101.935C23.5678 101.776 23.4812 101.534 23.4812 101.215C23.4812 100.079 23.9314 99.0156 24.8343 98.0261C25.5616 97.2394 26.5239 96.6284 27.7187 96.1906C28.9135 95.7527 30.472 95.535 32.3941 95.535C34.6947 95.535 36.4857 95.8418 37.7671 96.4528C39.0485 97.0638 39.9514 97.9618 40.4758 99.1393C41.0003 100.319 41.2625 101.769 41.2625 103.486V112.005C41.2625 113.287 41.0151 114.504 40.5204 115.654C40.0231 116.804 39.1722 117.73 37.965 118.43C36.7553 119.13 35.0583 119.478 32.874 119.478H31.6495C28.5623 119.478 26.2815 118.905 24.8121 117.752C23.3402 116.601 22.6055 114.744 22.6055 112.181C22.6055 110.259 23.0062 108.76 23.8077 107.681C24.6092 106.603 25.6853 105.838 27.0409 105.388C28.4039 104.935 29.8956 104.71 31.5283 104.71ZM31.7905 108.685C30.42 108.685 29.3934 108.948 28.7107 109.472C28.0255 109.997 27.6841 110.885 27.6841 112.136C27.6841 113.388 28.018 114.264 28.6884 114.759C29.3588 115.253 30.3038 115.501 31.5283 115.501H32.2704C33.6978 115.501 34.7169 115.152 35.328 114.452C35.939 113.752 36.2457 112.574 36.2457 110.912V108.945C35.2834 108.829 34.4399 108.757 33.7101 108.728C32.9828 108.7 32.3421 108.685 31.7905 108.685Z" fill="#616161"/>
<path d="M50.0023 90.9908V117.774C50.0023 118.299 49.9083 118.642 49.7178 118.801C49.5273 118.962 49.1563 119.041 48.6046 119.041H46.2026C45.6485 119.041 45.2774 118.962 45.0894 118.801C44.8989 118.64 44.8049 118.299 44.8049 117.774V90.9908C44.8049 90.4664 44.8989 90.125 45.0894 89.9642C45.2774 89.8034 45.6509 89.7242 46.2026 89.7242H48.6046C49.1563 89.7242 49.5273 89.8034 49.7178 89.9642C49.9083 90.125 50.0023 90.4664 50.0023 90.9908Z" fill="#616161"/>
<path d="M71.0068 108.992H58.3362V109.21C58.3362 111.394 58.6925 112.945 59.4074 113.863C60.1198 114.781 61.3072 115.238 62.9671 115.238C65.0921 115.238 66.3883 114.481 66.8558 112.968C67.0315 112.473 67.4248 112.225 68.0358 112.225H70.7446C71.2393 112.225 71.5881 112.3 71.7934 112.443C71.9963 112.589 72.1002 112.851 72.1002 113.23C72.1002 113.784 71.9171 114.432 71.5535 115.174C71.1899 115.916 70.7594 116.537 70.2647 117.032C69.4483 117.878 68.392 118.524 67.0983 118.976C65.802 119.427 64.3821 119.654 62.8385 119.654C59.7512 119.654 57.3616 118.781 55.6745 117.032C53.9849 115.283 53.1414 112.794 53.1414 109.561V106.152C53.1414 102.773 53.9849 100.161 55.6745 98.3106C57.3641 96.4602 59.7661 95.535 62.883 95.535C65.9999 95.535 68.3673 96.3934 69.9827 98.1127C71.6005 99.8319 72.4069 102.35 72.4069 105.67V107.723C72.4069 108.218 72.3203 108.554 72.1447 108.728C71.9691 108.903 71.5881 108.992 71.0068 108.992ZM62.9251 99.728C61.3517 99.728 60.2089 100.144 59.494 100.975C58.779 101.806 58.3931 103.167 58.3362 105.059H67.118C67.118 103.223 66.7841 101.875 66.1137 101.017C65.4433 100.158 64.3796 99.728 62.9251 99.728Z" fill="#616161"/>
<path d="M86.3886 119.041H83.9421C81.3793 119.041 79.618 118.422 78.6557 117.185C77.6959 115.946 77.2135 114.279 77.2135 112.183V100.431H74.898C74.4602 100.431 74.1708 100.351 74.0248 100.191C73.8789 100.03 73.8071 99.7033 73.8071 99.2085V97.373C73.8071 96.8783 73.8789 96.5517 74.0248 96.3909C74.1708 96.2301 74.4627 96.151 74.898 96.151H77.2135V90.9957C77.2135 90.4712 77.3075 90.1299 77.498 89.9691C77.686 89.8083 78.0595 89.7291 78.6111 89.7291H81.0132C81.5673 89.7291 81.9383 89.8108 82.1264 89.9691C82.3144 90.1299 82.4108 90.4712 82.4108 90.9957V96.151H86.3861C86.824 96.151 87.1134 96.2301 87.2594 96.3909C87.4053 96.5517 87.4771 96.8783 87.4771 97.373V99.2085C87.4771 99.7033 87.4029 100.032 87.2594 100.191C87.1134 100.351 86.8215 100.431 86.3861 100.431H82.4133V111.397C82.4133 112.475 82.5964 113.269 82.96 113.776C83.3236 114.286 83.9421 114.541 84.8153 114.541H86.3886C86.8265 114.541 87.1159 114.622 87.2619 114.781C87.4078 114.942 87.4796 115.268 87.4796 115.763V117.816C87.4796 118.311 87.4152 118.64 87.2816 118.798C87.153 118.961 86.8537 119.041 86.3886 119.041Z" fill="#616161"/>
<path d="M102.765 118.823C100.318 118.823 98.4531 118.167 97.1717 116.856V126.19C97.1717 126.684 97.0851 127.021 96.9095 127.194C96.7339 127.37 96.3554 127.456 95.774 127.456H93.372C92.8179 127.456 92.4468 127.37 92.2588 127.194C92.0684 127.018 91.9744 126.684 91.9744 126.19V105.935C91.9744 102.615 92.7536 100.052 94.3121 98.2462C95.8705 96.4404 98.369 95.5375 101.805 95.5375C104.952 95.5375 107.398 96.3464 109.145 97.9618C110.894 99.5771 111.767 101.858 111.767 104.799V108.906C111.767 112.082 110.995 114.528 109.451 116.245C107.905 117.962 105.676 118.823 102.765 118.823ZM106.567 108.423V105.67C106.567 103.688 106.181 102.234 105.409 101.301C104.637 100.369 103.435 99.9037 101.805 99.9037C100.202 99.9037 99.0147 100.369 98.2453 101.301C97.476 102.234 97.0876 103.688 97.0876 105.67V108.379C97.0876 112.399 98.6609 114.407 101.808 114.407C104.979 114.41 106.567 112.413 106.567 108.423Z" fill="#616161"/>
<path d="M124.153 119.652C121.036 119.652 118.604 118.801 116.858 117.096C115.109 115.392 114.236 113.012 114.236 109.952V105.67C114.236 102.466 115.109 99.9754 116.858 98.1993C118.607 96.4231 121.036 95.535 124.153 95.535C127.27 95.535 129.702 96.386 131.45 98.0904C133.199 99.7948 134.073 102.175 134.073 105.235V109.517C134.073 112.69 133.199 115.174 131.45 116.965C129.702 118.756 127.27 119.652 124.153 119.652ZM124.153 115.238C127.299 115.238 128.873 113.259 128.873 109.297V105.888C128.873 101.927 127.299 99.9457 124.153 99.9457C121.009 99.9457 119.435 101.927 119.435 105.888V109.297C119.435 113.259 121.009 115.238 124.153 115.238Z" fill="#616161"/>
<path d="M139.725 93.5239C138.916 93.5239 138.268 93.3161 137.786 92.898C137.303 92.48 137.061 91.9061 137.061 91.1738V90.3501C137.061 89.5931 137.303 89.0118 137.786 88.6061C138.268 88.2029 138.914 88 139.725 88C140.561 88 141.219 88.2029 141.704 88.6061C142.187 89.0118 142.429 89.5931 142.429 90.3501V91.1738C142.429 91.9061 142.187 92.48 141.704 92.898C141.219 93.3161 140.561 93.5239 139.725 93.5239ZM142.3 97.4126V117.772C142.3 118.296 142.206 118.64 142.016 118.798C141.825 118.959 141.454 119.038 140.903 119.038H138.501C137.947 119.038 137.576 118.959 137.388 118.798C137.197 118.637 137.103 118.296 137.103 117.772V97.4126C137.103 96.8882 137.197 96.5468 137.388 96.386C137.576 96.2252 137.949 96.1461 138.501 96.1461H140.903C141.457 96.1461 141.828 96.2252 142.016 96.386C142.206 96.5468 142.3 96.8882 142.3 97.4126Z" fill="#616161"/>
<path d="M157.551 95.535C159.998 95.535 161.818 96.2425 163.013 97.655C164.208 99.0675 164.804 100.997 164.804 103.444V117.774C164.804 118.298 164.71 118.642 164.52 118.801C164.329 118.961 163.958 119.041 163.407 119.041H161.005C160.45 119.041 160.079 118.961 159.891 118.801C159.701 118.64 159.607 118.298 159.607 117.774V104.23C159.607 102.892 159.337 101.863 158.798 101.15C158.259 100.438 157.277 100.079 155.849 100.079C154.452 100.079 153.351 100.51 152.549 101.368C151.748 102.227 151.347 103.429 151.347 104.972V117.774C151.347 118.298 151.253 118.642 151.063 118.801C150.872 118.961 150.501 119.041 149.949 119.041H147.547C146.993 119.041 146.622 118.961 146.434 118.801C146.244 118.64 146.15 118.298 146.15 117.774V97.4151C146.15 96.8906 146.244 96.5493 146.434 96.3885C146.622 96.2277 146.996 96.1485 147.547 96.1485H149.863C150.414 96.1485 150.788 96.2277 150.976 96.3885C151.164 96.5493 151.26 96.8906 151.26 97.4151V98.3328C151.931 97.4596 152.811 96.7744 153.905 96.2796C154.996 95.7824 156.21 95.535 157.551 95.535Z" fill="#616161"/>
<path d="M179.412 119.041H176.965C174.402 119.041 172.641 118.422 171.679 117.185C170.719 115.946 170.236 114.279 170.236 112.183V100.431H167.921C167.483 100.431 167.194 100.351 167.048 100.191C166.902 100.03 166.83 99.7033 166.83 99.2085V97.373C166.83 96.8783 166.902 96.5517 167.048 96.3909C167.194 96.2301 167.486 96.151 167.921 96.151H170.236V90.9957C170.236 90.4712 170.33 90.1299 170.521 89.9691C170.709 89.8083 171.082 89.7291 171.634 89.7291H174.036C174.59 89.7291 174.961 89.8108 175.149 89.9691C175.337 90.1299 175.434 90.4712 175.434 90.9957V96.151H179.409C179.847 96.151 180.136 96.2301 180.282 96.3909C180.428 96.5517 180.5 96.8783 180.5 97.373V99.2085C180.5 99.7033 180.426 100.032 180.282 100.191C180.136 100.351 179.844 100.431 179.409 100.431H175.434V111.397C175.434 112.475 175.617 113.269 175.98 113.776C176.344 114.286 176.963 114.541 177.836 114.541H179.409C179.847 114.541 180.136 114.622 180.282 114.781C180.428 114.942 180.5 115.268 180.5 115.763V117.816C180.5 118.311 180.436 118.64 180.302 118.798C180.176 118.961 179.877 119.041 179.412 119.041Z" fill="#616161"/>
</svg>
