<svg width="21" height="22" viewBox="0 0 21 22" fill="none" xmlns="http://www.w3.org/2000/svg">
<path d="M17.575 15.6251L16.45 14.4751C16.7833 13.8918 17.0417 13.1459 17.225 12.2376C17.4083 11.3293 17.5 10.5501 17.5 9.9001V5.0001L11 2.6001L6.3 4.3251L5.15 3.1751L11 0.975098L19 3.9501V9.9001C19 10.8908 18.875 11.8718 18.625 12.8431C18.375 13.8144 18.025 14.7418 17.575 15.6251ZM19.25 21.5751L15.75 18.1251C15.0167 18.8584 14.2667 19.4584 13.5 19.9251C12.7333 20.3918 11.9 20.7418 11 20.9751C8.61667 20.3251 6.6875 18.9548 5.2125 16.8643C3.7375 14.7738 3 12.4524 3 9.9001V5.3251L0.375 2.7001L1.45 1.6251L20.325 20.5001L19.25 21.5751ZM11 19.4251C11.7012 19.1914 12.3723 18.8622 13.0134 18.4373C13.6545 18.0125 14.2167 17.5501 14.7 17.0501L4.5 6.8251V9.9001C4.5 12.0685 5.10833 14.0397 6.325 15.8139C7.54167 17.588 9.1 18.7918 11 19.4251Z" fill="#3F4945"/>
</svg>
