<svg width="16" height="21" viewBox="0 0 16 21" fill="none" xmlns="http://www.w3.org/2000/svg">
<path d="M6.9 14.3251L12.6 8.6251L11.55 7.6001L6.975 12.1751L4.45 9.6501L3.35 10.7501L6.9 14.3251ZM8 20.9751C5.66667 20.3918 3.75 19.0376 2.25 16.9126C0.75 14.7876 0 12.4584 0 9.9251V3.9751L8 0.975098L16 3.9751V9.9251C16 12.4584 15.25 14.7876 13.75 16.9126C12.25 19.0376 10.3333 20.3918 8 20.9751ZM8 19.4251C9.91667 18.7918 11.4792 17.5959 12.6875 15.8376C13.8958 14.0793 14.5 12.1084 14.5 9.9251V5.0251L8 2.5751L1.5 5.0251V9.9251C1.5 12.1084 2.10417 14.0793 3.3125 15.8376C4.52083 17.5959 6.08333 18.7918 8 19.4251Z" fill="#3F4945"/>
</svg>
