<svg width="16" height="21" viewBox="0 0 16 21" fill="none" xmlns="http://www.w3.org/2000/svg">
<path d="M8 14.8751C9.21528 14.8751 10.2483 14.4497 11.099 13.599C11.9497 12.7484 12.375 11.7154 12.375 10.5001C12.375 9.29871 11.9458 8.27753 11.0875 7.43655C10.2292 6.59558 9.2 6.15843 8 6.1251V7.3751C8.86667 7.39176 9.60417 7.70206 10.2125 8.30597C10.8208 8.90991 11.125 9.64324 11.125 10.506C11.125 11.3687 10.8212 12.1043 10.2135 12.7126C9.6059 13.3209 8.86805 13.6251 8 13.6251C7.44388 13.6251 6.92569 13.4918 6.44542 13.2251C5.96514 12.9584 5.58333 12.5834 5.3 12.1001L4.225 12.7001C4.625 13.3668 5.15672 13.8959 5.82015 14.2876C6.48358 14.6793 7.2102 14.8751 8 14.8751ZM4.2529 11.2251C4.4343 11.2251 4.58333 11.1658 4.7 11.0472C4.81667 10.9286 4.875 10.7786 4.875 10.5972C4.875 10.4158 4.8157 10.2668 4.6971 10.1501C4.57848 10.0334 4.42848 9.9751 4.2471 9.9751C4.0657 9.9751 3.91667 10.0344 3.8 10.153C3.68333 10.2716 3.625 10.4216 3.625 10.603C3.625 10.7844 3.6843 10.9334 3.8029 11.0501C3.92152 11.1668 4.07152 11.2251 4.2529 11.2251ZM4.8029 9.1251C4.9843 9.1251 5.13333 9.0658 5.25 8.9472C5.36667 8.82858 5.425 8.67858 5.425 8.4972C5.425 8.3158 5.3657 8.16676 5.2471 8.0501C5.12848 7.93343 4.97848 7.8751 4.7971 7.8751C4.6157 7.8751 4.46667 7.9344 4.35 8.053C4.23333 8.17161 4.175 8.32161 4.175 8.503C4.175 8.6844 4.2343 8.83343 4.3529 8.9501C4.47152 9.06676 4.62152 9.1251 4.8029 9.1251ZM6.2529 7.7501C6.4343 7.7501 6.58333 7.6908 6.7 7.5722C6.81667 7.45358 6.875 7.30358 6.875 7.1222C6.875 6.9408 6.8157 6.79176 6.6971 6.6751C6.57848 6.55843 6.42848 6.5001 6.2471 6.5001C6.0657 6.5001 5.91667 6.5594 5.8 6.678C5.68333 6.79661 5.625 6.94661 5.625 7.128C5.625 7.3094 5.6843 7.45843 5.8029 7.5751C5.92152 7.69176 6.07152 7.7501 6.2529 7.7501ZM8 20.9751C5.66667 20.3918 3.75 19.0376 2.25 16.9126C0.75 14.7876 0 12.4584 0 9.9251V3.9751L8 0.975098L16 3.9751V9.9251C16 12.4584 15.25 14.7876 13.75 16.9126C12.25 19.0376 10.3333 20.3918 8 20.9751ZM8 19.4251C9.91667 18.7918 11.4792 17.5959 12.6875 15.8376C13.8958 14.0793 14.5 12.1084 14.5 9.9251V5.0251L8 2.5751L1.5 5.0251V9.9251C1.5 12.1084 2.10417 14.0793 3.3125 15.8376C4.52083 17.5959 6.08333 18.7918 8 19.4251Z" fill="#3F4945"/>
</svg>
