<svg width="24" height="24" viewBox="0 0 24 24" fill="none" xmlns="http://www.w3.org/2000/svg">
<path d="M6.09926 17.2025V14.5116L4.53174 15.4913V14.2504L6.09926 13.2707V12.0428L4.53174 13.0225V11.7946L6.09926 10.8019V7.79749H7.14428V10.1487L9.23431 8.84249V10.0704L7.14428 11.3897V12.6176L9.23431 11.3113V12.5392L7.14428 13.8585V16.1575C7.86708 16.1575 8.4832 15.9028 8.99265 15.3933C9.50209 14.8839 9.75682 14.2678 9.75682 13.545H10.8018C10.8018 14.5639 10.447 15.4282 9.73722 16.1379C9.02748 16.8476 8.16317 17.2025 7.14428 17.2025H6.09926Z" fill="#616161"/>
<mask id="path-2-inside-1_1024_6983" fill="white">
<rect y="4" width="24" height="16.64" rx="1.28"/>
</mask>
<rect y="4" width="24" height="16.64" rx="1.28" stroke="#616161" stroke-width="4" mask="url(#path-2-inside-1_1024_6983)"/>
<path d="M12 13.8016L15.8016 10L19.6033 13.8016H12Z" fill="#616161"/>
</svg>
