<svg width="24" height="24" viewBox="0 0 24 24" fill="none" xmlns="http://www.w3.org/2000/svg">
<path d="M4 22C3.45 22 2.97917 21.8042 2.5875 21.4125C2.19583 21.0208 2 20.55 2 20V4C2 3.45 2.19583 2.97917 2.5875 2.5875C2.97917 2.19583 3.45 2 4 2H12L18 8V12.25H16V9H11V4H4V20H15V22H4Z" fill="#616161"/>
<path d="M19 14L23 18L21.6 19.425L20 17.85V22H18V17.85L16.4 19.425L15 18L19 14Z" fill="#616161"/>
<path d="M7.56752 18.405V15.7141L6 16.6938V15.4529L7.56752 14.4732V13.2453L6 14.225V12.9971L7.56752 12.0044V9H8.61254V11.3513L10.7026 10.045V11.2729L8.61254 12.5922V13.8201L10.7026 12.5138V13.7417L8.61254 15.061V17.36C9.33534 17.36 9.95146 17.1053 10.4609 16.5959C10.9704 16.0864 11.2251 15.4703 11.2251 14.7475H12.2701C12.2701 15.7664 11.9152 16.6307 11.2055 17.3404C10.4957 18.0502 9.63143 18.405 8.61254 18.405H7.56752Z" fill="#616161"/>
</svg>
