<svg width="24" height="24" viewBox="0 0 24 24" fill="none" xmlns="http://www.w3.org/2000/svg">
<path d="M2.5875 21.4125C2.97917 21.8042 3.45 22 4 22H11V20H4V4H11V9H16V12.25H18V8L12 2H4C3.45 2 2.97917 2.19583 2.5875 2.5875C2.19583 2.97917 2 3.45 2 4V20C2 20.55 2.19583 21.0208 2.5875 21.4125Z" fill="#616161"/>
<path d="M13 22V18.925L18.525 13.425C18.675 13.275 18.8417 13.1667 19.025 13.1C19.2083 13.0333 19.3917 13 19.575 13C19.775 13 19.9667 13.0375 20.15 13.1125C20.3333 13.1875 20.5 13.3 20.65 13.45L21.575 14.375C21.7083 14.525 21.8125 14.6917 21.8875 14.875C21.9625 15.0583 22 15.2417 22 15.425C22 15.6083 21.9667 15.7958 21.9 15.9875C21.8333 16.1792 21.725 16.35 21.575 16.5L16.075 22H13ZM14.5 20.5H15.45L18.475 17.45L18.025 16.975L17.55 16.525L14.5 19.55V20.5ZM18.025 16.975L17.55 16.525L18.475 17.45L18.025 16.975Z" fill="#616161"/>
</svg>
