<svg width="30" height="24" viewBox="0 0 17 24" color="#FFFFFF" fill="#FFFFFF" xmlns="http://www.w3.org/2000/svg">
<path fill-rule="evenodd" clip-rule="evenodd" d="M1.11675 23.46C1.41675 23.82 1.76675 24 2.16675 24H15.1667C15.5667 24 15.9167 23.82 16.2167 23.46C16.5167 23.1 16.6667 22.68 16.6667 22.2V6.57L11.1917 0H2.16675C1.76675 0 1.41675 0.18 1.11675 0.54C0.816748 0.9 0.666748 1.32 0.666748 1.8V22.2C0.666748 22.68 0.816748 23.1 1.11675 23.46ZM4.64175 13.8H12.6917V12H4.64175V13.8ZM4.64175 18.9H12.6917V17.1H4.64175V18.9ZM10.4417 7.38V1.8H2.19591H2.16675V22.2H2.19591H15.1667V7.38H10.4417Z" fill="#FFFFFF" />
</svg>
