<svg width="24" height="18" viewBox="0 0 24 18" fill="none" xmlns="http://www.w3.org/2000/svg">
<path fill-rule="evenodd" clip-rule="evenodd" d="M5.0214 17.4273C4.12835 17.4273 3.36818 17.1144 2.74091 16.4886C2.11364 15.8629 1.8 15.103 1.8 14.2091H0V1.63636C0 1.2 0.163636 0.818182 0.490909 0.490909C0.818182 0.163636 1.2 0 1.63636 0H17.4273V4.55455H20.2909L24 9.49091V14.2091H22.0636C22.0636 15.103 21.7511 15.8629 21.1259 16.4886C20.5008 17.1144 19.7417 17.4273 18.8487 17.4273C17.9556 17.4273 17.1955 17.1144 16.5682 16.4886C15.9409 15.8629 15.6273 15.103 15.6273 14.2091H8.23636C8.23636 15.1 7.9238 15.8591 7.29867 16.4864C6.67353 17.1136 5.91444 17.4273 5.0214 17.4273ZM5.01818 15.7909C5.45455 15.7909 5.82727 15.6364 6.13636 15.3273C6.44545 15.0182 6.6 14.6455 6.6 14.2091C6.6 13.7727 6.44545 13.4 6.13636 13.0909C5.82727 12.7818 5.45455 12.6273 5.01818 12.6273C4.58182 12.6273 4.20909 12.7818 3.9 13.0909C3.59091 13.4 3.43636 13.7727 3.43636 14.2091C3.43636 14.6455 3.59091 15.0182 3.9 15.3273C4.20909 15.6364 4.58182 15.7909 5.01818 15.7909ZM2.23636 12.5727H1.63636V1.63636H15.7909V12.5727H7.77273C7.46364 12.1 7.06818 11.7136 6.58636 11.4136C6.10455 11.1136 5.5731 10.9636 4.99203 10.9636C4.41095 10.9636 3.88368 11.1091 3.41021 11.4C2.93674 11.6909 2.54545 12.0818 2.23636 12.5727ZM18.8455 15.7909C19.2818 15.7909 19.6545 15.6364 19.9636 15.3273C20.2727 15.0182 20.4273 14.6455 20.4273 14.2091C20.4273 13.7727 20.2727 13.4 19.9636 13.0909C19.6545 12.7818 19.2818 12.6273 18.8455 12.6273C18.4091 12.6273 18.0364 12.7818 17.7273 13.0909C17.4182 13.4 17.2636 13.7727 17.2636 14.2091C17.2636 14.6455 17.4182 15.0182 17.7273 15.3273C18.0364 15.6364 18.4091 15.7909 18.8455 15.7909ZM22.5 10.2273H17.4273V6.19091H19.4727L22.5 10.2273Z" fill="#616161"/>
</svg>
