<svg width="22" height="16" viewBox="0 0 22 16" fill="none" xmlns="http://www.w3.org/2000/svg">
<path d="M14 16C11.7667 16 9.875 15.225 8.325 13.675C6.775 12.125 6 10.2333 6 8C6 5.78333 6.775 3.89583 8.325 2.3375C9.875 0.779167 11.7667 0 14 0C16.2167 0 18.1042 0.779167 19.6625 2.3375C21.2208 3.89583 22 5.78333 22 8C22 10.2333 21.2208 12.125 19.6625 13.675C18.1042 15.225 16.2167 16 14 16ZM14 14C15.6667 14 17.0833 13.4167 18.25 12.25C19.4167 11.0833 20 9.66667 20 8C20 6.33333 19.4167 4.91667 18.25 3.75C17.0833 2.58333 15.6667 2 14 2C12.3333 2 10.9167 2.58333 9.75 3.75C8.58333 4.91667 8 6.33333 8 8C8 9.66667 8.58333 11.0833 9.75 12.25C10.9167 13.4167 12.3333 14 14 14ZM16.275 11.725L17.7 10.3L15 7.6V4H13V8.425L16.275 11.725ZM1 5V3H5V5H1ZM0 9V7H5V9H0ZM1 13V11H5V13H1Z" fill="#616161"/>
</svg>
