<svg width="24" height="24" viewBox="0 0 24 24" fill="none" xmlns="http://www.w3.org/2000/svg">
<path fill-rule="evenodd" clip-rule="evenodd" d="M2 20.4V18.6H4.52V9.42C4.52 7.74 5.015 6.245 6.005 4.935C6.995 3.625 8.3 2.8 9.92 2.46V1.59C9.92 1.13 10.085 0.75 10.415 0.45C10.745 0.15 11.14 0 11.6 0C12.06 0 12.455 0.15 12.785 0.45C13.115 0.75 13.28 1.13 13.28 1.59V2.46C14.9 2.8 16.21 3.625 17.21 4.935C18.21 6.245 18.71 7.74 18.71 9.42V18.6H21.2V20.4H2ZM11.6 24C10.96 24 10.4 23.765 9.92 23.295C9.44 22.825 9.2 22.26 9.2 21.6H14C14 22.26 13.765 22.825 13.295 23.295C12.825 23.765 12.26 24 11.6 24ZM16.91 18.6H6.32V9.42C6.32 7.94 6.835 6.68 7.865 5.64C8.895 4.6 10.15 4.08 11.63 4.08C13.11 4.08 14.36 4.6 15.38 5.64C16.4 6.68 16.91 7.94 16.91 9.42V18.6Z" fill="#3F4945"/>
</svg>
