<svg width="24" height="24" viewBox="0 0 24 24" fill="none" xmlns="http://www.w3.org/2000/svg">
<path fill-rule="evenodd" clip-rule="evenodd" d="M3.19995 10.4L12 3.20001L20.8 10.4L12 15.5288L3.19995 10.4Z" stroke="#53433E" stroke-width="0.8" stroke-linecap="round" stroke-linejoin="round"/>
<path fill-rule="evenodd" clip-rule="evenodd" d="M4.79993 11.2L11.9999 15.2L19.1999 11.2V5.59999C19.1999 5.15816 18.8418 4.79999 18.3999 4.79999H5.59993C5.1581 4.79999 4.79993 5.15816 4.79993 5.59999V11.2Z" fill="#D8D8D8" stroke="#53433E" stroke-width="0.8"/>
<path fill-rule="evenodd" clip-rule="evenodd" d="M3.19995 10.4L3.19995 20.8H20.8V10.4L12.8056 15.0593C12.3077 15.3495 11.6922 15.3495 11.1943 15.0593L3.19995 10.4Z" stroke="#53433E" stroke-width="0.8" stroke-linejoin="round"/>
<path d="M10.7356 9.77804H17.4088" stroke="#53433E" stroke-width="0.8" stroke-linecap="round"/>
<path d="M10.7356 12.31H15.7697" stroke="#53433E" stroke-width="0.8" stroke-linecap="round"/>
<path d="M10.7356 7.24605H17.4088" stroke="#53433E" stroke-width="0.8" stroke-linecap="round"/>
<path d="M7.59114 7.13574L7.59092 8.00351L8.73852 7.52181V7.91956L7.59092 8.39509V8.86715L8.73852 8.3853V8.78305L7.59092 9.25872L7.59114 11.0217C7.78014 11.0022 7.90697 10.9863 7.97162 10.9741C8.23041 10.9252 8.38072 10.8062 8.48699 10.7045C8.59326 10.6028 8.74405 10.369 8.82521 9.99731C8.83655 9.94536 8.85154 9.83389 8.87017 9.66288H9.33074C9.28309 10.2637 9.12957 10.7007 8.87017 10.9741C8.71315 11.1396 8.49925 11.2975 8.21987 11.3786C8.09845 11.4138 7.88887 11.4531 7.59114 11.4964H7.109L7.10862 9.4589L6.38049 9.76078V9.37544L7.10862 9.06938V8.59526L6.38049 8.89729V8.51196L7.10862 8.20575L7.109 7.13574H7.59114Z" fill="#6D7278"/>
</svg>
