<svg width="24" height="24" viewBox="0 0 24 24" fill="none" xmlns="http://www.w3.org/2000/svg">
<path d="M16 7.00002H16.5V6.50002V5.40002H19.2C19.8075 5.40002 20.3 5.89251 20.3 6.50003V20.9C20.3 21.0657 20.1656 21.2 20 21.2H3.99995C3.83427 21.2 3.69995 21.0657 3.69995 20.9V6.50002C3.69995 5.89251 4.19244 5.40002 4.79995 5.40002H7.49995V6.50002V7.00002H7.99995H16Z" stroke="#53433E"/>
<path d="M8.79993 4.09999C8.79993 3.65816 9.1581 3.29999 9.59993 3.29999H14.3999C14.8418 3.29999 15.1999 3.65816 15.1999 4.09999V5.69999H8.79993V4.09999Z" stroke="#53433E"/>
<path d="M5.59998 9.70002L6.39998 10.5L7.99998 8.90002" stroke="#53433E" stroke-linecap="square"/>
<path d="M10.4 9.70005H17.6" stroke="#53433E"/>
<path d="M5.59998 13.7L6.39998 14.5L7.99998 12.9" stroke="#53433E" stroke-linecap="square"/>
<path d="M10.4 13.7H17.6" stroke="#53433E"/>
<path d="M5.59998 17.7L6.39998 18.5L7.99998 16.9" stroke="#53433E" stroke-linecap="square"/>
<path d="M10.4 17.7H17.6" stroke="#53433E"/>
</svg>
