<svg width="200" height="44" viewBox="0 0 200 44" fill="none" xmlns="http://www.w3.org/2000/svg">
<path d="M11.9894 34.2477C9.27107 34.2477 7.19862 33.5193 5.77484 32.0625V42.4331C5.77484 42.9828 5.67864 43.3566 5.48348 43.549C5.28833 43.7441 4.8678 43.8403 4.22188 43.8403H1.55297C0.937283 43.8403 0.524992 43.7441 0.316097 43.549C0.104454 43.3538 0 42.9828 0 42.4331V19.9274C0 16.2388 0.865816 13.3912 2.59744 11.3847C4.32907 9.37825 7.10241 8.375 10.923 8.375C14.4192 8.375 17.1376 9.27381 19.0781 11.0687C21.0186 12.8635 21.9916 15.3977 21.9916 18.6658V23.2285C21.9916 26.7577 21.1341 29.4761 19.4189 31.3836C17.7038 33.2912 15.2273 34.2477 11.9894 34.2477ZM16.2141 22.6925V19.6333C16.2141 17.4317 15.7853 15.8155 14.9277 14.7793C14.0701 13.7431 12.7343 13.2263 10.923 13.2263C9.14188 13.2263 7.82256 13.7431 6.96774 14.7793C6.11017 15.8155 5.68139 17.4317 5.68139 19.6333V22.6431C5.68139 27.1095 7.4295 29.3414 10.923 29.3414C14.4494 29.3442 16.2141 27.126 16.2141 22.6925Z" fill="white"/>
<path d="M34.4759 18.5669C35.2208 18.5669 36.0701 18.5916 37.0239 18.6384C37.9776 18.6851 38.8764 18.7593 39.7175 18.8555V17.5939C39.7175 15.7826 39.3684 14.5292 38.673 13.8311C37.9776 13.1357 36.9002 12.7866 35.4434 12.7866C34.4402 12.7866 33.6156 12.9405 32.9669 13.2483C32.3183 13.5562 31.8675 14.0812 31.6064 14.826C31.4772 15.2136 31.315 15.4665 31.1199 15.5792C30.9247 15.6946 30.5674 15.7496 30.0507 15.7496H26.8953C26.3758 15.7496 26.0212 15.6616 25.826 15.483C25.6309 15.3071 25.5347 15.0377 25.5347 14.6831C25.5347 13.4215 26.0349 12.2396 27.0382 11.1402C27.8463 10.2661 28.9155 9.58719 30.2431 9.10069C31.5706 8.61418 33.3023 8.37231 35.4379 8.37231C37.9941 8.37231 39.9841 8.71313 41.4079 9.39204C42.8317 10.0709 43.8349 11.0687 44.4177 12.377C45.0004 13.6881 45.2917 15.2988 45.2917 17.2063V26.6726C45.2917 28.0963 45.0168 29.4487 44.4671 30.7268C43.9147 32.0049 42.9691 33.0329 41.6278 33.8107C40.2837 34.5886 38.3982 34.9761 35.9712 34.9761H34.6106C31.1803 34.9761 28.6461 34.3384 27.0134 33.0576C25.378 31.7795 24.5617 29.7153 24.5617 26.8677C24.5617 24.732 25.007 23.0664 25.8975 21.868C26.7881 20.6696 27.9837 19.8203 29.4899 19.32C31.0044 18.817 32.6618 18.5669 34.4759 18.5669ZM34.7673 22.9839C33.2445 22.9839 32.1039 23.2753 31.3453 23.858C30.5839 24.4407 30.2046 25.4274 30.2046 26.8182C30.2046 28.209 30.5756 29.182 31.3205 29.7318C32.0654 30.2815 33.1153 30.5563 34.4759 30.5563H35.3005C36.8864 30.5563 38.0189 30.1688 38.6978 29.3909C39.3767 28.6131 39.7175 27.3047 39.7175 25.4577V23.2725C38.6483 23.1433 37.711 23.0636 36.9002 23.0306C36.0921 23.0004 35.3802 22.9839 34.7673 22.9839Z" fill="white"/>
<path d="M55.0025 3.32308V33.0823C55.0025 33.665 54.8981 34.0471 54.6864 34.223C54.4748 34.4016 54.0625 34.4896 53.4496 34.4896H50.7807C50.165 34.4896 49.7527 34.4016 49.5438 34.223C49.3321 34.0443 49.2277 33.665 49.2277 33.0823V3.32308C49.2277 2.74037 49.3321 2.36106 49.5438 2.1824C49.7527 2.00374 50.1677 1.91577 50.7807 1.91577H53.4496C54.0625 1.91577 54.4748 2.00374 54.6864 2.1824C54.8981 2.36106 55.0025 2.74037 55.0025 3.32308Z" fill="white"/>
<path d="M78.3409 23.3248H64.2625V23.5666C64.2625 25.9937 64.6583 27.717 65.4526 28.7368C66.2442 29.7565 67.5636 30.265 69.4079 30.265C71.769 30.265 73.2092 29.4239 73.7287 27.7418C73.9239 27.192 74.3609 26.9172 75.0398 26.9172H78.0495C78.5993 26.9172 78.9868 26.9996 79.2149 27.1591C79.4403 27.3212 79.5558 27.6126 79.5558 28.0331C79.5558 28.6488 79.3524 29.3689 78.9483 30.1935C78.5443 31.0181 78.066 31.708 77.5163 32.2577C76.6093 33.1978 75.4356 33.9151 73.9981 34.4181C72.5578 34.9184 70.9801 35.1713 69.265 35.1713C65.8347 35.1713 63.1795 34.201 61.305 32.2577C59.4277 30.3145 58.4904 27.5494 58.4904 23.9569V20.1694C58.4904 16.4147 59.4277 13.5122 61.305 11.4562C63.1823 9.40029 65.8512 8.37231 69.3144 8.37231C72.7777 8.37231 75.4081 9.32608 77.203 11.2364C79.0005 13.1466 79.8966 15.9447 79.8966 19.6334V21.9147C79.8966 22.4644 79.8004 22.8382 79.6052 23.0306C79.4101 23.2258 78.9868 23.3248 78.3409 23.3248ZM69.3612 13.0312C67.6131 13.0312 66.3432 13.493 65.5489 14.4165C64.7545 15.34 64.3257 16.8518 64.2625 18.9545H74.0201C74.0201 16.915 73.649 15.417 72.9041 14.4632C72.1592 13.5095 70.9774 13.0312 69.3612 13.0312Z" fill="white"/>
<path d="M95.4317 34.4896H92.7134C89.8658 34.4896 87.9088 33.8025 86.8396 32.4282C85.7731 31.0511 85.2372 29.1986 85.2372 26.8705V13.8118H82.6644C82.1779 13.8118 81.8564 13.7239 81.6942 13.5452C81.532 13.3665 81.4523 13.0037 81.4523 12.454V10.4145C81.4523 9.86482 81.532 9.502 81.6942 9.32334C81.8564 9.14468 82.1807 9.05673 82.6644 9.05673H85.2372V3.32861C85.2372 2.74591 85.3416 2.36661 85.5532 2.18795C85.7621 2.00929 86.1772 1.92133 86.7901 1.92133H89.459C90.0747 1.92133 90.487 2.01204 90.6959 2.18795C90.9048 2.36661 91.012 2.74591 91.012 3.32861V9.05673H95.429C95.9155 9.05673 96.2371 9.14468 96.3993 9.32334C96.5614 9.502 96.6411 9.86482 96.6411 10.4145V12.454C96.6411 13.0037 96.5587 13.3693 96.3993 13.5452C96.2371 13.7239 95.9127 13.8118 95.429 13.8118H91.0147V25.9964C91.0147 27.1948 91.2181 28.0771 91.6222 28.6406C92.0262 29.2068 92.7134 29.4899 93.6836 29.4899H95.4317C95.9182 29.4899 96.2398 29.5806 96.402 29.7565C96.5642 29.9352 96.6439 30.298 96.6439 30.8477V33.1291C96.6439 33.6788 96.5724 34.0444 96.424 34.2203C96.2811 34.4017 95.9485 34.4896 95.4317 34.4896Z" fill="white"/>
<path d="M113.628 34.2477C110.909 34.2477 108.837 33.5193 107.413 32.0625V42.4331C107.413 42.9828 107.317 43.3566 107.122 43.549C106.927 43.7441 106.506 43.8403 105.86 43.8403H103.191C102.575 43.8403 102.163 43.7441 101.954 43.549C101.743 43.3538 101.638 42.9828 101.638 42.4331V19.9274C101.638 16.2388 102.504 13.3912 104.236 11.3847C105.967 9.37825 108.743 8.375 112.561 8.375C116.057 8.375 118.776 9.27381 120.716 11.0687C122.66 12.8635 123.63 15.3977 123.63 18.6658V23.2285C123.63 26.7577 122.772 29.4761 121.057 31.3836C119.339 33.2912 116.863 34.2477 113.628 34.2477ZM117.852 22.6925V19.6333C117.852 17.4317 117.423 15.8155 116.566 14.7793C115.708 13.7431 114.372 13.2263 112.561 13.2263C110.78 13.2263 109.461 13.7431 108.606 14.7793C107.751 15.8155 107.32 17.4317 107.32 19.6333V22.6431C107.32 27.1095 109.068 29.3414 112.564 29.3414C116.088 29.3442 117.852 27.126 117.852 22.6925Z" fill="white"/>
<path d="M137.392 35.1685C133.929 35.1685 131.227 34.223 129.286 32.3292C127.343 30.4354 126.373 27.7912 126.373 24.3912V19.6334C126.373 16.0739 127.343 13.3061 129.286 11.3326C131.23 9.35905 133.929 8.37231 137.392 8.37231C140.855 8.37231 143.557 9.31782 145.501 11.2116C147.444 13.1054 148.414 15.7496 148.414 19.1496V23.9075C148.414 27.4339 147.444 30.1935 145.501 32.1835C143.557 34.1735 140.855 35.1685 137.392 35.1685ZM137.392 30.265C140.888 30.265 142.636 28.0661 142.636 23.6628V19.8752C142.636 15.4747 140.888 13.2731 137.392 13.2731C133.899 13.2731 132.15 15.4747 132.15 19.8752V23.6628C132.15 28.0661 133.899 30.265 137.392 30.265Z" fill="white"/>
<path d="M154.695 6.13765C153.796 6.13765 153.076 5.90676 152.54 5.44225C152.004 4.97773 151.734 4.34006 151.734 3.52647V2.61118C151.734 1.77011 152.004 1.12419 152.54 0.673413C153.076 0.22539 153.793 0 154.695 0C155.624 0 156.355 0.22539 156.894 0.673413C157.43 1.12419 157.699 1.77011 157.699 2.61118V3.52647C157.699 4.34006 157.43 4.97773 156.894 5.44225C156.355 5.90676 155.624 6.13765 154.695 6.13765ZM157.556 10.4585V33.0795C157.556 33.6622 157.451 34.0443 157.24 34.2202C157.028 34.3989 156.616 34.4868 156.003 34.4868H153.334C152.718 34.4868 152.306 34.3989 152.097 34.2202C151.886 34.0416 151.781 33.6622 151.781 33.0795V10.4585C151.781 9.87576 151.886 9.49646 152.097 9.3178C152.306 9.13914 152.721 9.05118 153.334 9.05118H156.003C156.619 9.05118 157.031 9.13914 157.24 9.3178C157.451 9.49646 157.556 9.87576 157.556 10.4585Z" fill="white"/>
<path d="M174.501 8.37231C177.22 8.37231 179.243 9.1584 180.57 10.7279C181.898 12.2973 182.56 14.4412 182.56 17.1596V33.0823C182.56 33.665 182.456 34.0471 182.244 34.223C182.032 34.4017 181.62 34.4896 181.007 34.4896H178.338C177.723 34.4896 177.31 34.4017 177.101 34.223C176.89 34.0443 176.785 33.665 176.785 33.0823V18.0337C176.785 16.5467 176.486 15.4032 175.886 14.6116C175.287 13.82 174.196 13.4215 172.61 13.4215C171.057 13.4215 169.834 13.8998 168.943 14.8535C168.053 15.8073 167.608 17.1431 167.608 18.8583V33.0823C167.608 33.665 167.503 34.0471 167.292 34.223C167.08 34.4017 166.668 34.4896 166.055 34.4896H163.386C162.77 34.4896 162.358 34.4017 162.149 34.223C161.937 34.0443 161.833 33.665 161.833 33.0823V10.4613C161.833 9.87855 161.937 9.49923 162.149 9.32057C162.358 9.14191 162.773 9.05396 163.386 9.05396H165.959C166.571 9.05396 166.986 9.14191 167.195 9.32057C167.404 9.49923 167.511 9.87855 167.511 10.4613V11.481C168.256 10.5107 169.235 9.74935 170.45 9.19963C171.662 8.64716 173.011 8.37231 174.501 8.37231Z" fill="white"/>
<path d="M198.791 34.4896H196.072C193.225 34.4896 191.268 33.8025 190.198 32.4282C189.132 31.0511 188.596 29.1986 188.596 26.8705V13.8118H186.023C185.537 13.8118 185.215 13.7239 185.053 13.5452C184.891 13.3665 184.811 13.0037 184.811 12.454V10.4145C184.811 9.86482 184.891 9.502 185.053 9.32334C185.215 9.14468 185.54 9.05673 186.023 9.05673H188.596V3.32861C188.596 2.74591 188.7 2.36661 188.912 2.18795C189.121 2.00929 189.536 1.92133 190.149 1.92133H192.818C193.434 1.92133 193.846 2.01204 194.055 2.18795C194.264 2.36661 194.371 2.74591 194.371 3.32861V9.05673H198.788C199.274 9.05673 199.596 9.14468 199.758 9.32334C199.92 9.502 200 9.86482 200 10.4145V12.454C200 13.0037 199.918 13.3693 199.758 13.5452C199.596 13.7239 199.272 13.8118 198.788 13.8118H194.371V25.9964C194.371 27.1948 194.574 28.0771 194.978 28.6406C195.382 29.2068 196.07 29.4899 197.04 29.4899H198.788C199.274 29.4899 199.596 29.5806 199.758 29.7565C199.92 29.9352 200 30.298 200 30.8477V33.1291C200 33.6788 199.929 34.0444 199.78 34.2203C199.64 34.4017 199.307 34.4896 198.791 34.4896Z" fill="white"/>
</svg>
