<svg width="24" height="24" viewBox="0 0 24 24" fill="none" xmlns="http://www.w3.org/2000/svg">
<rect x="5.28001" y="10.82" width="1.6" height="1.6" stroke="#3F4945" stroke-width="0.800001"/>
<rect x="12.4" y="10.82" width="1.6" height="1.6" stroke="#3F4945" stroke-width="0.800001"/>
<rect x="5.00005" y="9.82" width="16.4" height="0.400001" fill="#FBFDFA" stroke="#3F4945" stroke-width="0.400001"/>
<rect x="5.0407" y="13.02" width="16.3593" height="0.400001" stroke="#3F4945" stroke-width="0.400001"/>
<rect x="19.52" y="10.82" width="1.6" height="1.6" stroke="#3F4945" stroke-width="0.800001"/>
<rect x="3.67991" y="6.66001" width="1.6" height="1.6" stroke="#3F4945" stroke-width="0.800001"/>
<rect x="10.7999" y="6.66001" width="1.6" height="1.6" stroke="#3F4945" stroke-width="0.800001"/>
<rect x="3.39995" y="5.66002" width="16.4" height="0.400001" fill="#FBFDFA" stroke="#3F4945" stroke-width="0.400001"/>
<rect x="3.4406" y="8.86003" width="16.3593" height="0.400001" stroke="#3F4945" stroke-width="0.400001"/>
<rect x="17.92" y="6.66001" width="1.6" height="1.6" stroke="#3F4945" stroke-width="0.800001"/>
<rect x="2.87998" y="14.98" width="1.6" height="1.6" stroke="#3F4945" stroke-width="0.800001"/>
<rect x="9.99998" y="14.98" width="1.6" height="1.6" stroke="#3F4945" stroke-width="0.800001"/>
<rect x="2.60002" y="13.98" width="16.4" height="0.400001" fill="#FBFDFA" stroke="#3F4945" stroke-width="0.400001"/>
<rect x="2.60002" y="17.18" width="16.3593" height="0.400001" stroke="#3F4945" stroke-width="0.400001"/>
<rect x="17.12" y="14.98" width="1.6" height="1.6" stroke="#3F4945" stroke-width="0.800001"/>
<rect x="4.47996" y="19.14" width="1.6" height="1.6" stroke="#3F4945" stroke-width="0.800001"/>
<rect x="11.6" y="19.14" width="1.6" height="1.6" stroke="#3F4945" stroke-width="0.800001"/>
<rect x="4.2" y="18.14" width="16.4" height="0.400001" fill="#FBFDFA" stroke="#3F4945" stroke-width="0.400001"/>
<rect x="4.24065" y="21.34" width="16.3593" height="0.400001" stroke="#3F4945" stroke-width="0.400001"/>
<rect x="18.7199" y="19.14" width="1.6" height="1.6" stroke="#3F4945" stroke-width="0.800001"/>
</svg>
