<svg width="24" height="24" viewBox="0 0 24 24" fill="none" xmlns="http://www.w3.org/2000/svg">
<path d="M20.3 6.72536V21.2H3.69995V3.79999H16.9903L20.3 6.72536Z" stroke="#3F4945"/>
<path fill-rule="evenodd" clip-rule="evenodd" d="M5.59998 8.02502V9.19259H14.7459V8.02502H5.59998ZM5.59998 12.4034V11.2358H14.7459V12.4034H5.59998ZM16.8454 13.2791L18.227 14.6607L18.7913 14.0964C18.8951 13.9926 18.947 13.8564 18.947 13.6877C18.947 13.5191 18.8951 13.3829 18.7913 13.2791L18.227 12.7148C18.1232 12.611 17.987 12.5591 17.8184 12.5591C17.6497 12.5591 17.5135 12.611 17.4097 12.7148L16.8454 13.2791ZM11.8054 19.7007V18.3191L16.0086 14.1158L17.3902 15.4975L13.187 19.7007H11.8054ZM5.59998 15.6142V14.4467H11.4378V15.6142H5.59998Z" fill="#3F4945"/>
</svg>
