<svg width="300" height="233" viewBox="0 0 300 233" fill="none" xmlns="http://www.w3.org/2000/svg">
<path d="M149.947 119.894C183.055 119.894 209.894 93.0552 209.894 59.9472C209.894 26.8393 183.055 0 149.947 0C116.839 0 90 26.8393 90 59.9472C90 93.0552 116.839 119.894 149.947 119.894Z" fill="#FF5E00"/>
<path d="M149.947 26.6465L99.3219 59.9473L106.191 64.466L131.505 47.8135L156.82 31.1652L149.947 26.6465Z" fill="white"/>
<path d="M178.676 45.5419L171.848 41.052L146.533 57.7003L121.219 74.3528L128.046 78.8427L178.676 45.5419Z" fill="white"/>
<path d="M142.456 55.0162L167.771 38.3678L160.898 33.8491L135.583 50.4975L110.272 67.1499L117.141 71.6686L142.456 55.0162Z" fill="white"/>
<path d="M164.311 69.3928L189.622 52.7445L182.799 48.2546L132.169 81.5554L138.997 86.0453L164.311 69.3928Z" fill="white"/>
<path d="M200.573 59.9472L193.704 55.4243L168.389 72.0768L143.074 88.7251L149.947 93.248L200.573 59.9472Z" fill="white"/>
<path d="M61.9894 201.248C59.2711 201.248 57.1986 200.519 55.7748 199.063V209.433C55.7748 209.983 55.6786 210.357 55.4835 210.549C55.2883 210.744 54.8678 210.84 54.2219 210.84H51.553C50.9373 210.84 50.525 210.744 50.3161 210.549C50.1045 210.354 50 209.983 50 209.433V186.927C50 183.239 50.8658 180.391 52.5974 178.385C54.3291 176.378 57.1024 175.375 60.923 175.375C64.4192 175.375 67.1376 176.274 69.0781 178.069C71.0186 179.863 71.9916 182.398 71.9916 185.666V190.229C71.9916 193.758 71.1341 196.476 69.4189 198.384C67.7038 200.291 65.2273 201.248 61.9894 201.248ZM66.2141 189.693V186.633C66.2141 184.432 65.7853 182.816 64.9277 181.779C64.0701 180.743 62.7343 180.226 60.923 180.226C59.1419 180.226 57.8226 180.743 56.9677 181.779C56.1102 182.816 55.6814 184.432 55.6814 186.633V189.643C55.6814 194.11 57.4295 196.341 60.923 196.341C64.4494 196.344 66.2141 194.126 66.2141 189.693Z" fill="white"/>
<path d="M84.4759 185.567C85.2207 185.567 86.0701 185.592 87.0238 185.638C87.9776 185.685 88.8764 185.759 89.7175 185.856V184.594C89.7175 182.783 89.3684 181.529 88.673 180.831C87.9776 180.136 86.9002 179.787 85.4434 179.787C84.4401 179.787 83.6156 179.941 82.9669 180.248C82.3182 180.556 81.8674 181.081 81.6063 181.826C81.4771 182.214 81.315 182.466 81.1198 182.579C80.9247 182.695 80.5674 182.75 80.0506 182.75H76.8952C76.3757 182.75 76.0212 182.662 75.826 182.483C75.6308 182.307 75.5346 182.038 75.5346 181.683C75.5346 180.422 76.0349 179.24 77.0381 178.14C77.8462 177.266 78.9154 176.587 80.243 176.101C81.5706 175.614 83.3022 175.372 85.4379 175.372C87.9941 175.372 89.9841 175.713 91.4079 176.392C92.8317 177.071 93.8349 178.069 94.4176 179.377C95.0003 180.688 95.2917 182.299 95.2917 184.206V193.673C95.2917 195.096 95.0168 196.449 94.4671 197.727C93.9146 199.005 92.9691 200.033 91.6278 200.811C90.2837 201.589 88.3981 201.976 85.9711 201.976H84.6106C81.1803 201.976 78.6461 201.338 77.0134 200.058C75.378 198.779 74.5616 196.715 74.5616 193.868C74.5616 191.732 75.0069 190.066 75.8975 188.868C76.788 187.67 77.9837 186.82 79.4899 186.32C81.0044 185.817 82.6618 185.567 84.4759 185.567ZM84.7672 189.984C83.2445 189.984 82.1038 190.275 81.3452 190.858C80.5839 191.441 80.2045 192.427 80.2045 193.818C80.2045 195.209 80.5756 196.182 81.3205 196.732C82.0653 197.281 83.1153 197.556 84.4759 197.556H85.3005C86.8864 197.556 88.0188 197.169 88.6978 196.391C89.3767 195.613 89.7175 194.305 89.7175 192.458V190.273C88.6483 190.143 87.711 190.064 86.9002 190.031C86.0921 190 85.3802 189.984 84.7672 189.984Z" fill="white"/>
<path d="M105.002 170.323V200.082C105.002 200.665 104.898 201.047 104.686 201.223C104.475 201.402 104.062 201.49 103.45 201.49H100.781C100.165 201.49 99.7526 201.402 99.5437 201.223C99.3321 201.044 99.2277 200.665 99.2277 200.082V170.323C99.2277 169.74 99.3321 169.361 99.5437 169.182C99.7526 169.004 100.168 168.916 100.781 168.916H103.45C104.062 168.916 104.475 169.004 104.686 169.182C104.898 169.361 105.002 169.74 105.002 170.323Z" fill="white"/>
<path d="M128.341 190.325H114.262V190.567C114.262 192.994 114.658 194.717 115.453 195.737C116.244 196.757 117.564 197.265 119.408 197.265C121.769 197.265 123.209 196.424 123.729 194.742C123.924 194.192 124.361 193.917 125.04 193.917H128.049C128.599 193.917 128.987 194 129.215 194.159C129.44 194.321 129.556 194.613 129.556 195.033C129.556 195.649 129.352 196.369 128.948 197.194C128.544 198.018 128.066 198.708 127.516 199.258C126.609 200.198 125.436 200.915 123.998 201.418C122.558 201.918 120.98 202.171 119.265 202.171C115.835 202.171 113.18 201.201 111.305 199.258C109.428 197.314 108.49 194.549 108.49 190.957V187.169C108.49 183.415 109.428 180.512 111.305 178.456C113.182 176.4 115.851 175.372 119.314 175.372C122.778 175.372 125.408 176.326 127.203 178.236C129 180.147 129.897 182.945 129.897 186.633V188.915C129.897 189.464 129.8 189.838 129.605 190.031C129.41 190.226 128.987 190.325 128.341 190.325ZM119.361 180.031C117.613 180.031 116.343 180.493 115.549 181.417C114.754 182.34 114.326 183.852 114.262 185.954H124.02C124.02 183.915 123.649 182.417 122.904 181.463C122.159 180.509 120.977 180.031 119.361 180.031Z" fill="white"/>
<path d="M145.432 201.49H142.713C139.866 201.49 137.909 200.803 136.84 199.428C135.773 198.051 135.237 196.199 135.237 193.871V180.812H132.664C132.178 180.812 131.856 180.724 131.694 180.545C131.532 180.367 131.452 180.004 131.452 179.454V177.415C131.452 176.865 131.532 176.502 131.694 176.323C131.856 176.145 132.181 176.057 132.664 176.057H135.237V170.329C135.237 169.746 135.342 169.367 135.553 169.188C135.762 169.009 136.177 168.921 136.79 168.921H139.459C140.075 168.921 140.487 169.012 140.696 169.188C140.905 169.367 141.012 169.746 141.012 170.329V176.057H145.429C145.915 176.057 146.237 176.145 146.399 176.323C146.561 176.502 146.641 176.865 146.641 177.415V179.454C146.641 180.004 146.559 180.369 146.399 180.545C146.237 180.724 145.913 180.812 145.429 180.812H141.015V192.996C141.015 194.195 141.218 195.077 141.622 195.641C142.026 196.207 142.713 196.49 143.684 196.49H145.432C145.918 196.49 146.24 196.581 146.402 196.757C146.564 196.935 146.644 197.298 146.644 197.848V200.129C146.644 200.679 146.572 201.044 146.424 201.22C146.281 201.402 145.948 201.49 145.432 201.49Z" fill="white"/>
<path d="M163.628 201.248C160.909 201.248 158.837 200.519 157.413 199.063V209.433C157.413 209.983 157.317 210.357 157.122 210.549C156.927 210.744 156.506 210.84 155.86 210.84H153.191C152.575 210.84 152.163 210.744 151.954 210.549C151.743 210.354 151.638 209.983 151.638 209.433V186.927C151.638 183.239 152.504 180.391 154.236 178.385C155.967 176.378 158.743 175.375 162.561 175.375C166.057 175.375 168.776 176.274 170.716 178.069C172.66 179.863 173.63 182.398 173.63 185.666V190.229C173.63 193.758 172.772 196.476 171.057 198.384C169.339 200.291 166.863 201.248 163.628 201.248ZM167.852 189.693V186.633C167.852 184.432 167.423 182.816 166.566 181.779C165.708 180.743 164.372 180.226 162.561 180.226C160.78 180.226 159.461 180.743 158.606 181.779C157.751 182.816 157.32 184.432 157.32 186.633V189.643C157.32 194.11 159.068 196.341 162.564 196.341C166.088 196.344 167.852 194.126 167.852 189.693Z" fill="white"/>
<path d="M187.392 202.169C183.929 202.169 181.227 201.223 179.286 199.329C177.343 197.435 176.373 194.791 176.373 191.391V186.633C176.373 183.074 177.343 180.306 179.286 178.333C181.23 176.359 183.929 175.372 187.392 175.372C190.855 175.372 193.557 176.318 195.501 178.212C197.444 180.105 198.414 182.75 198.414 186.15V190.907C198.414 194.434 197.444 197.194 195.501 199.184C193.557 201.174 190.855 202.169 187.392 202.169ZM187.392 197.265C190.888 197.265 192.636 195.066 192.636 190.663V186.875C192.636 182.475 190.888 180.273 187.392 180.273C183.899 180.273 182.151 182.475 182.151 186.875V190.663C182.151 195.066 183.899 197.265 187.392 197.265Z" fill="white"/>
<path d="M204.695 173.138C203.796 173.138 203.076 172.907 202.54 172.442C202.004 171.978 201.734 171.34 201.734 170.526V169.611C201.734 168.77 202.004 168.124 202.54 167.673C203.076 167.225 203.793 167 204.695 167C205.624 167 206.355 167.225 206.894 167.673C207.43 168.124 207.699 168.77 207.699 169.611V170.526C207.699 171.34 207.43 171.978 206.894 172.442C206.355 172.907 205.624 173.138 204.695 173.138ZM207.556 177.458V200.08C207.556 200.662 207.451 201.044 207.24 201.22C207.028 201.399 206.616 201.487 206.003 201.487H203.334C202.718 201.487 202.306 201.399 202.097 201.22C201.886 201.042 201.781 200.662 201.781 200.08V177.458C201.781 176.876 201.886 176.496 202.097 176.318C202.306 176.139 202.721 176.051 203.334 176.051H206.003C206.619 176.051 207.031 176.139 207.24 176.318C207.451 176.496 207.556 176.876 207.556 177.458Z" fill="white"/>
<path d="M224.501 175.372C227.22 175.372 229.243 176.158 230.57 177.728C231.898 179.297 232.56 181.441 232.56 184.16V200.082C232.56 200.665 232.456 201.047 232.244 201.223C232.032 201.402 231.62 201.49 231.007 201.49H228.338C227.723 201.49 227.31 201.402 227.101 201.223C226.89 201.044 226.785 200.665 226.785 200.082V185.034C226.785 183.547 226.486 182.403 225.887 181.612C225.287 180.82 224.196 180.422 222.61 180.422C221.057 180.422 219.834 180.9 218.944 181.854C218.053 182.807 217.608 184.143 217.608 185.858V200.082C217.608 200.665 217.503 201.047 217.292 201.223C217.08 201.402 216.668 201.49 216.055 201.49H213.386C212.77 201.49 212.358 201.402 212.149 201.223C211.937 201.044 211.833 200.665 211.833 200.082V177.461C211.833 176.879 211.937 176.499 212.149 176.321C212.358 176.142 212.773 176.054 213.386 176.054H215.959C216.571 176.054 216.987 176.142 217.195 176.321C217.404 176.499 217.512 176.879 217.512 177.461V178.481C218.256 177.511 219.235 176.749 220.45 176.2C221.662 175.647 223.012 175.372 224.501 175.372Z" fill="white"/>
<path d="M248.791 201.49H246.072C243.225 201.49 241.268 200.803 240.198 199.428C239.132 198.051 238.596 196.199 238.596 193.871V180.812H236.023C235.537 180.812 235.215 180.724 235.053 180.545C234.891 180.367 234.811 180.004 234.811 179.454V177.415C234.811 176.865 234.891 176.502 235.053 176.323C235.215 176.145 235.54 176.057 236.023 176.057H238.596V170.329C238.596 169.746 238.7 169.367 238.912 169.188C239.121 169.009 239.536 168.921 240.149 168.921H242.818C243.434 168.921 243.846 169.012 244.055 169.188C244.264 169.367 244.371 169.746 244.371 170.329V176.057H248.788C249.274 176.057 249.596 176.145 249.758 176.323C249.92 176.502 250 176.865 250 177.415V179.454C250 180.004 249.918 180.369 249.758 180.545C249.596 180.724 249.272 180.812 248.788 180.812H244.371V192.996C244.371 194.195 244.574 195.077 244.978 195.641C245.382 196.207 246.069 196.49 247.04 196.49H248.788C249.274 196.49 249.596 196.581 249.758 196.757C249.92 196.935 250 197.298 250 197.848V200.129C250 200.679 249.929 201.044 249.78 201.22C249.64 201.402 249.307 201.49 248.791 201.49Z" fill="white"/>
</svg>
