<svg width="120" height="120" viewBox="0 0 120 120" fill="none" xmlns="http://www.w3.org/2000/svg">
<path d="M59.9472 119.894C93.0551 119.894 119.894 93.0552 119.894 59.9472C119.894 26.8393 93.0551 0 59.9472 0C26.8393 0 -2.28882e-05 26.8393 -2.28882e-05 59.9472C-2.28882e-05 93.0552 26.8393 119.894 59.9472 119.894Z" fill="#FF5E00"/>
<path d="M59.9472 26.6464L9.32189 59.9472L16.1907 64.466L41.5054 47.8135L66.8201 31.1651L59.9472 26.6464Z" fill="white"/>
<path d="M88.6757 45.5417L81.8482 41.0519L56.5334 57.7002L31.2187 74.3527L38.0463 78.8425L88.6757 45.5417Z" fill="white"/>
<path d="M52.456 55.0162L77.7707 38.3678L70.8978 33.8491L45.583 50.4975L20.2725 67.1499L27.1412 71.6686L52.456 55.0162Z" fill="white"/>
<path d="M74.3115 69.3928L99.6221 52.7445L92.7987 48.2546L42.1692 81.5554L48.9968 86.0453L74.3115 69.3928Z" fill="white"/>
<path d="M110.573 59.9472L103.704 55.4243L78.3891 72.0768L53.0744 88.7251L59.9473 93.248L110.573 59.9472Z" fill="white"/>
</svg>
